<?xml version="1.0" encoding="UTF-8" standalone="no"?>
<!-- Created with Inkscape (http://www.inkscape.org/) -->

<svg
   width="4in"
   height="4in"
   viewBox="0 0 101.6 101.6"
   version="1.1"
   id="svg1"
   xml:space="preserve"
   inkscape:version="1.4 (86a8ad7, 2024-10-11)"
   sodipodi:docname="FDL_Logo.svg"
   xmlns:inkscape="http://www.inkscape.org/namespaces/inkscape"
   xmlns:sodipodi="http://sodipodi.sourceforge.net/DTD/sodipodi-0.dtd"
   xmlns="http://www.w3.org/2000/svg"
   xmlns:svg="http://www.w3.org/2000/svg"><sodipodi:namedview
     id="namedview1"
     pagecolor="#ffffff"
     bordercolor="#000000"
     borderopacity="0.25"
     inkscape:showpageshadow="2"
     inkscape:pageopacity="0.0"
     inkscape:pagecheckerboard="0"
     inkscape:deskcolor="#d1d1d1"
     inkscape:document-units="in"
     inkscape:zoom="0.78840488"
     inkscape:cx="397.00414"
     inkscape:cy="561.25984"
     inkscape:window-width="1920"
     inkscape:window-height="1129"
     inkscape:window-x="1912"
     inkscape:window-y="-8"
     inkscape:window-maximized="1"
     inkscape:current-layer="layer1" /><defs
     id="defs1" /><g
     inkscape:label="Layer 1"
     inkscape:groupmode="layer"
     id="layer1"><path
       style="fill:#45b353;fill-opacity:1;stroke-width:1.11381"
       d="M 49.337602,97.65195 C 48.852023,97.206414 48.45473,87.502147 48.45473,76.086899 V 55.331909 L 40.656488,48.299111 C 32.040622,40.528943 30.536691,38.488535 29.091348,32.60853 c -2.039514,-8.297245 0.01059,-7.868397 11.196956,2.342194 l 10.73478,9.798395 10.915497,-9.963353 10.915498,-9.963354 v 5.308644 c 0,6.198314 -1.556556,8.618359 -11.711271,18.208008 l -7.489524,7.072764 -0.35197,21.108868 C 52.970828,96.341373 52.2276,100.30364 49.337602,97.65195 Z M 15.387188,87.028048 C 14.22905,86.59926 13.781968,82.523023 13.781968,72.392564 V 58.35138 h 15.272724 c 16.175738,0 16.831686,0.233345 16.831686,5.987776 0,2.060645 -1.020378,2.260197 -11.557588,2.260197 H 22.771203 v 10.60452 c 0,10.23933 -0.09951,10.601323 -2.889397,10.511514 -1.589171,-0.05116 -3.611747,-0.360465 -4.494618,-0.687339 z m 9.952368,-7.371249 c 0,-11.926199 -0.04376,-11.879164 11.052891,-11.879164 h 9.493931 v 8.837099 c 0,4.860413 -0.418907,8.837108 -0.930905,8.837108 -0.511998,0 -4.990563,-3.578948 -9.952366,-7.953198 l -9.021464,-7.953197 9.599183,9.131479 9.599185,9.131487 h -9.920228 -9.920227 z m 41.125788,-0.979873 9.599176,-9.131479 -9.021455,7.953197 c -4.961813,4.37425 -9.440373,7.953198 -9.952373,7.953198 -0.511999,0 -0.930905,-3.976695 -0.930905,-8.837108 v -8.837099 h 9.493937 c 11.096644,0 11.052887,-0.04699 11.052887,11.879164 v 8.151614 H 66.786389 56.866155 Z M 79.274963,77.203873 V 66.599353 H 67.717376 c -10.537211,0 -11.557589,-0.199552 -11.557589,-2.260197 0,-5.754431 0.655955,-5.987776 16.831691,-5.987776 h 15.272717 v 14.001945 c 0,13.524514 -0.09853,14.026171 -2.889391,14.712425 -5.976922,1.469657 -6.099841,1.270937 -6.099841,-9.861877 z M 7.842603,81.72106 C 2.9447512,76.785799 2.224379,74.089097 2.224379,60.689312 V 47.554659 l 15.73116,0.39067 c 14.007472,0.34786 16.188468,0.689947 19.904736,3.122032 2.295465,1.502252 4.173574,3.225488 4.173574,3.829408 0,0.617389 -6.728399,1.098048 -15.370593,1.098048 h -15.37059 l -0.36057,14.238009 -0.36057,14.238008 z M 90.832552,70.316815 V 55.994817 H 75.42243 c -8.66661,0 -15.410109,-0.480507 -15.410109,-1.098048 0,-0.60392 1.878103,-2.327156 4.173566,-3.829408 3.716267,-2.432085 5.897268,-2.774172 19.904737,-3.122032 l 15.731162,-0.39067 v 13.115705 c 0,13.732258 -1.056312,17.381248 -6.289401,21.726596 l -2.699833,2.241836 z M 39.626428,31.988498 C 30.443427,23.518748 29.122976,21.808539 30.301497,19.91112 c 3.790587,-6.102847 3.498856,-6.147316 12.331425,1.879521 l 8.390162,7.624786 8.106762,-7.372146 c 7.619959,-6.92946 8.225144,-7.245809 10.078212,-5.268223 4.215309,4.498532 3.686855,5.653513 -7.085707,15.486415 -5.78096,5.27668 -10.80045,9.59398 -11.154448,9.59398 -0.353986,0 -5.45765,-4.440128 -11.341475,-9.866955 z M 41.39176,19.46812 35.067428,13.576713 41.39176,7.6853074 c 3.478384,-3.2402682 6.779466,-5.8914065 7.335741,-5.8914065 0.556273,0 1.011401,5.3022652 1.011401,11.7828121 0,6.480548 -0.455128,11.782802 -1.011401,11.782802 -0.556275,0 -3.857357,-2.651127 -7.335741,-5.891395 z m 10.915505,-5.891407 c 0,-6.4805469 0.455124,-11.7828121 1.011396,-11.7828121 0.556284,0 3.857358,2.6511383 7.33575,5.8914065 l 6.32433,5.8914056 -6.32433,5.891407 c -3.478392,3.240268 -6.779466,5.891395 -7.33575,5.891395 -0.556272,0 -1.011396,-5.302254 -1.011396,-11.782802 z"
       id="path1"
       inkscape:export-filename="FDL_Logo.png"
       inkscape:export-xdpi="96"
       inkscape:export-ydpi="96" /></g></svg>
